Coordinates
version=1
nRows=21
nColumns=19
inDegrees=yes

Units are S.I. units (second, meters, Newtons, ...)
If the header above contains a line with 'inDegrees', this indicates whether rotational values are in degrees (yes) or radians (no).

endheader
time	pelvis_tilt	pelvis_list	pelvis_rotation	pelvis_tx	pelvis_ty	pelvis_tz	hip_flexion_r	hip_adduction_r	hip_rotation_r	knee_angle_r	knee_angle_r_beta	ankle_angle_r	hip_flexion_l	hip_adduction_l	hip_rotation_l	knee_angle_l	knee_angle_l_beta	ankle_angle_l
     14.92666667	     -3.03360650	     -6.09204417	     -0.48980625	      1.86901309	      0.99533933	      1.01158283	     25.49334716	      4.11709095	    -24.75426613	     22.31493793	      0.38946914	     -7.86065651	    -13.64853986	    -11.23166624	    -17.39341959	     42.52901224	      0.74227129	    -12.68799775
     14.93333333	     -2.52989971	     -6.59999863	     -0.37610991	      1.86935688	      0.99174242	      1.01269162	     24.37983576	      4.65230889	    -25.30429118	     23.04824633	      0.40226779	     -6.63054264	    -13.21304111	    -12.57656188	    -17.57132089	     46.18934172	      0.80615609	    -12.27114757
     14.94000000	     -2.12586298	     -7.18580002	     -0.18510565	      1.86946418	      0.98775033	      1.01367202	     23.33759836	      5.28703732	    -25.71531944	     23.83411897	      0.41598385	     -5.10725678	    -12.49321686	    -14.01185091	    -17.44657304	     49.96898563	      0.87212332	    -11.85299325
     14.94666667	     -1.69751257	     -7.75373911	     -0.08845315	      1.86927415	      0.98349266	      1.01465645	     22.31903591	      5.95722349	    -25.82047324	     24.81013043	      0.43301846	     -3.18176905	    -11.71261586	    -15.36812057	    -17.21677257	     53.75418020	      0.93818743	    -11.44170257
     14.95333333	     -1.32784922	     -8.31679202	     -0.02068347	      1.86871783	      0.97895149	      1.01557184	     21.41946956	      6.63672534	    -25.75721078	     25.92861463	      0.45253970	     -0.98038484	    -10.71857810	    -16.65031920	    -16.75690686	     57.58179771	      1.00499196	    -11.00445578
     14.96000000	     -0.80159910	     -8.82907122	     -0.10912203	      1.86780866	      0.97444422	      1.01651621	     20.43326995	      7.30637499	    -25.41119138	     27.22671034	      0.47519574	      1.47998055	     -9.85757613	    -17.76747740	    -16.29767982	     61.32079905	      1.07024984	    -10.55176794
     14.96666667	     -0.77222279	     -9.39181049	     -0.01857489	      1.86641917	      0.96935924	      1.01716093	     20.04716396	      7.93796042	    -25.24435927	     28.57024222	      0.49864479	      3.91489263	     -8.09026160	    -18.84759360	    -15.16555152	     65.22855926	      1.13845313	    -10.08358453
     14.97333333	     -0.23195888	     -9.85457965	     -0.22641392	      1.86472091	      0.96489257	      1.01792216	     19.19551549	      8.54183666	    -24.66581439	     30.08903827	      0.52515279	      6.51572654	     -7.00661205	    -19.66789005	    -14.37320548	     68.85165532	      1.20168808	     -9.61223653
     14.98000000	     -0.47712083	    -10.27883115	     -0.23901647	      1.86253560	      0.95959924	      1.01836344	     19.30624799	      8.93407304	    -24.44845823	     31.73826010	      0.55393714	      8.86395682	     -4.64402102	    -20.31488071	    -12.82549287	     72.63881077	      1.26778641	     -9.09415616
     14.98666667	     -0.40448719	    -10.63950907	     -0.42128611	      1.86008911	      0.95487911	      1.01879309	     19.11658391	      9.28743964	    -24.00705402	     33.45342170	      0.58387235	     11.12156868	     -2.67466937	    -20.75611029	    -11.46020777	     76.17531483	      1.32951005	     -8.55956416
     14.99333333	     -0.43369582	    -10.88660132	     -0.63932308	      1.85735734	      0.95031142	      1.01913862	     19.07375782	      9.49308145	    -23.51035110	     35.19964963	      0.61434978	     13.21324304	     -0.48955370	    -20.94136274	     -9.98368916	     79.54992601	      1.38840813	     -8.08526084
     15.00000000	     -0.53611902	    -11.07740284	     -0.86504885	      1.85444961	      0.94597392	      1.01935705	     19.10961201	      9.61483429	    -23.00056885	     36.91881014	      0.64435479	     15.05025250	      1.85261532	    -20.95384379	     -8.43172091	     82.73810844	      1.44405241	     -7.61311066
     15.00666667	     -0.68058650	    -11.20280551	     -1.08600031	      1.85142863	      0.94194737	      1.01950175	     19.15274140	      9.65514691	    -22.48415225	     38.55069685	      0.67283659	     16.64290195	      4.30040008	    -20.80945278	     -6.85610931	     85.70861656	      1.49589756	     -7.14438286
     15.01333333	     -0.89481997	    -11.24325835	     -1.28386427	      1.84833124	      0.93820744	      1.01955035	     19.21893743	      9.60517919	    -21.94441592	     40.06597493	      0.69928318	     18.02151545	      6.87550460	    -20.49666870	     -5.26781806	     88.43822682	      1.54353824	     -6.73471336
     15.02000000	     -1.18486338	    -11.19950611	     -1.44028034	      1.84521903	      0.93481159	      1.01952284	     19.28022401	      9.46547322	    -21.43108260	     41.42198289	      0.72294998	     19.18535591	      9.56812454	    -20.02818686	     -3.68395947	     90.89858898	      1.58647966	     -6.33134803
     15.02666667	     -1.51164265	    -11.08690226	     -1.51120528	      1.84215131	      0.93184016	      1.01941032	     19.26550409	      9.25936362	    -20.96348336	     42.55849592	      0.74278588	     20.18010901	     12.33113940	    -19.42608618	     -2.09544759	     93.06709196	      1.62432718	     -5.98459194
     15.03333333	     -1.88008544	    -10.89571376	     -1.52167784	      1.83916049	      0.92929072	      1.01924947	     19.17583455	      8.98634100	    -20.52530850	     43.48227605	      0.75890888	     21.03702899	     15.13285911	    -18.70666156	     -0.57882358	     94.92082268	      1.65668088	     -5.70286929
     15.04000000	     -2.21269436	    -10.63394840	     -1.43001558	      1.83632680	      0.92731436	      1.01899270	     18.89668937	      8.63223140	    -20.19975873	     44.14143249	      0.77041333	     21.74848271	     17.86845445	    -17.86321372	      0.87401261	     96.43035117	      1.68302713	     -5.46690907
     15.04666667	     -2.44785818	    -10.31219171	     -1.31080858	      1.83364566	      0.92599079	      1.01874945	     18.36819357	      8.24283023	    -19.89618990	     44.55397512	      0.77761356	     22.36409617	     20.40535721	    -16.97450784	      2.12669890	     97.56793922	      1.70288178	     -5.25449919
     15.05333333	     -2.91350217	     -9.92564138	     -1.13733932	      1.83112998	      0.92494951	      1.01847908	     17.96095493	      7.81756468	    -19.62528054	     44.72655008	      0.78062556	     22.85729944	     23.15155234	    -15.99629192	      3.28254042	     98.38110743	      1.71707425	     -5.14725633
     15.06000000	     -3.03344978	     -9.46917333	     -0.84451754	      1.82890936	      0.92494635	      1.01810436	     17.00684173	      7.30745396	    -19.49571837	     44.60271326	      0.77846420	     23.22735860	     25.37775591	    -14.95477313	      4.24033427	     98.76539639	      1.72378135	     -5.04215638
